# xmcd
#
# Track frame offsets:
# 150
# 14419
# 35044
# 51881
# 73574
# 88835
# 104409
# 119231
# 141117
# 156530
# 178004
# 195169
#
# Disc length: 2775 seconds
#
#
# Revision: 4
# Processed by: cddbd v1.5.2PL0 Copyright (c) Steve Scherf et al.
# Submitted via: FreeRIP 2.951 
#
DISCID=b00ad50c
DTITLE=ChueLee - Nie me ohni Dich
DYEAR=2004
DGENRE=Folk/Rock
TTITLE0=Uf dä Alpe obe
TTITLE1=Nie me ohni Dich
TTITLE2=Ich bi verliebt
TTITLE3=Muesch du ga ? (Tornero)
TTITLE4=Dä Holzmichel
TTITLE5=So es schön's Panorama
TTITLE6=Soumässig guet !
TTITLE7=Stärn vo Luzärn
TTITLE8=Oh, Anita
TTITLE9=Di Schmärz wird ga
TTITLE10=Bärgsee
TTITLE11=Min Traktor (In Zaire)
EXTD=
EXTT0=
EXTT1=
EXTT2=
EXTT3=
EXTT4=
EXTT5=
EXTT6=
EXTT7=
EXTT8=
EXTT9=
EXTT10=
EXTT11=
PLAYORDER=
